<?xml version="1.0" encoding="iso-8859-1"?>
<!-- Generator: Adobe Illustrator 19.0.0, SVG Export Plug-In . SVG Version: 6.00 Build 0)  -->
<svg version="1.1" id="Layer_1" xmlns="http://www.w3.org/2000/svg" xmlns:xlink="http://www.w3.org/1999/xlink" x="0px" y="0px"
	 viewBox="0 0 512 512" style="enable-background:new 0 0 512 512;" xml:space="preserve">
<g>
	<circle style="fill:#00D7DF;" cx="383.971" cy="95.816" r="62.693"/>
	<circle style="fill:#00D7DF;" cx="441.471" cy="416.186" r="62.693"/>
	<circle style="fill:#00D7DF;" cx="86.202" cy="255.996" r="78.366"/>
</g>
<g>
	<path style="fill:#FFFFFF;" d="M52.244,256.001H36.571c0-27.366,22.265-49.632,49.632-49.632v15.673
		C67.477,222.043,52.244,237.277,52.244,256.001z"/>
	<path style="fill:#FFFFFF;" d="M358.367,95.819h-15.673c0-22.757,18.515-41.273,41.273-41.273V70.22
		C369.85,70.22,358.367,81.704,358.367,95.819z"/>
	<path style="fill:#FFFFFF;" d="M415.871,416.182h-15.673c0-22.757,18.515-41.273,41.273-41.273v15.673
		C427.355,390.582,415.871,402.066,415.871,416.182z"/>
</g>
<path d="M441.471,345.652c-27.632,0-51.59,15.98-63.152,39.178l-215.971-88.481c6.409-12.046,10.057-25.777,10.057-40.348
	c0-16.075-4.435-31.13-12.129-44.025l164.13-78.454c12.521,19.71,34.531,32.826,59.56,32.826c38.89,0,70.529-31.639,70.529-70.529
	S422.856,25.29,383.966,25.29s-70.529,31.639-70.529,70.529c0,8.284,1.447,16.233,4.082,23.624l-166.644,79.655
	c-15.809-17.946-38.933-29.3-64.673-29.3C38.671,169.798,0,208.468,0,256s38.671,86.202,86.202,86.202
	c27.244,0,51.558-12.718,67.367-32.513l219.368,89.873c-1.294,5.332-1.996,10.894-1.996,16.619c0,38.89,31.639,70.529,70.529,70.529
	S512,455.071,512,416.181C512,377.292,480.36,345.652,441.471,345.652z M383.966,40.963c30.247,0,54.856,24.608,54.856,54.856
	s-24.609,54.856-54.856,54.856c-30.247,0-54.856-24.608-54.856-54.856S353.718,40.963,383.966,40.963z M86.202,326.53
	c-38.89,0-70.529-31.639-70.529-70.529s31.639-70.529,70.529-70.529s70.529,31.639,70.529,70.529S125.093,326.53,86.202,326.53z
	 M441.471,471.038c-30.247,0-54.856-24.608-54.856-54.856s24.609-54.856,54.856-54.856c30.247,0,54.856,24.608,54.856,54.856
	S471.718,471.038,441.471,471.038z"/>
<g>
</g>
<g>
</g>
<g>
</g>
<g>
</g>
<g>
</g>
<g>
</g>
<g>
</g>
<g>
</g>
<g>
</g>
<g>
</g>
<g>
</g>
<g>
</g>
<g>
</g>
<g>
</g>
<g>
</g>
</svg>
